# xmcd
#
# Track frame offsets: 
#        150
#        28652
#        41840
#        55845
#        65137
#        78817
#        104080
#        116640
#        133455
#
# Disc length: 2123 seconds
#
# Revision: 1
# Processed by: cddbd v1.5.2PL0 Copyright (c) Steve Scherf et al.
# Submitted via: ExactAudioCopy v0.95a5
#
DISCID=86084909
DTITLE=Johnny Otis - Otisology
DYEAR=1985
DGENRE=R&B
TTITLE0=Hand Jive '85
TTITLE1=Roll With Me Henry
TTITLE2=Let's Go, Johnny
TTITLE3=I'm Ready for Love
TTITLE4=I'm Scared of You
TTITLE5=Fonkitup
TTITLE6=I Can't Help Myself (Sugar Pie, Honey Bunch)
TTITLE7=I Wanna Come Over
TTITLE8=Nut Pony
EXTD=
EXTT0=
EXTT1=
EXTT2=
EXTT3=
EXTT4=
EXTT5=
EXTT6=
EXTT7=
EXTT8=
PLAYORDER=
